<mxfile host="app.diagrams.net" agent="Mozilla/5.0 (Windows NT 10.0; Win64; x64) AppleWebKit/537.36 (KHTML, like Gecko) Chrome/135.0.0.0 Safari/537.36" version="26.2.14">
  <diagram name="Page-1" id="x8NNUTHrCzYlAK7q1LZe">
    <mxGraphModel dx="872" dy="473" grid="1" gridSize="10" guides="1" tooltips="1" connect="1" arrows="1" fold="1" page="1" pageScale="1" pageWidth="850" pageHeight="1100" math="0" shadow="0">
      <root>
        <mxCell id="0" />
        <mxCell id="1" parent="0" />
        <mxCell id="6gc3YSvHJvTKcixmaC72-2" value="&lt;font style=&quot;font-size: 14px;&quot;&gt;System Comparison - Shufuti vs SharApu&lt;/font&gt;&lt;div&gt;&lt;font style=&quot;font-size: 14px;&quot;&gt;&lt;br&gt;&lt;/font&gt;&lt;/div&gt;" style="text;html=1;align=center;verticalAlign=middle;whiteSpace=wrap;rounded=0;" vertex="1" parent="1">
          <mxGeometry x="50" y="40" width="270" height="30" as="geometry" />
        </mxCell>
        <mxCell id="6gc3YSvHJvTKcixmaC72-3" value="&lt;h1 style=&quot;margin-top: 0px;&quot;&gt;If You Want To Order Work Page&lt;/h1&gt;&lt;p&gt;This page is aimed at the hirer searching for the perfect person to finish their project/task. It is like a guide page for understanding the system to find the right candidate.&lt;/p&gt;" style="text;html=1;whiteSpace=wrap;overflow=hidden;rounded=0;" vertex="1" parent="1">
          <mxGeometry x="400" y="20" width="380" height="120" as="geometry" />
        </mxCell>
        <mxCell id="6gc3YSvHJvTKcixmaC72-4" value="Shufuti" style="text;html=1;align=center;verticalAlign=middle;whiteSpace=wrap;rounded=0;" vertex="1" parent="1">
          <mxGeometry x="40" y="140" width="60" height="30" as="geometry" />
        </mxCell>
        <mxCell id="6gc3YSvHJvTKcixmaC72-5" value="SharApu" style="text;html=1;align=center;verticalAlign=middle;whiteSpace=wrap;rounded=0;" vertex="1" parent="1">
          <mxGeometry x="50" y="360" width="60" height="30" as="geometry" />
        </mxCell>
        <mxCell id="6gc3YSvHJvTKcixmaC72-6" value="An overview of what types of jobs can be posted." style="rounded=1;whiteSpace=wrap;html=1;" vertex="1" parent="1">
          <mxGeometry x="120" y="230" width="270" height="60" as="geometry" />
        </mxCell>
        <mxCell id="6gc3YSvHJvTKcixmaC72-7" value="" style="endArrow=classic;html=1;rounded=0;entryX=0.5;entryY=0;entryDx=0;entryDy=0;exitX=1;exitY=0.5;exitDx=0;exitDy=0;" edge="1" parent="1" source="6gc3YSvHJvTKcixmaC72-4" target="6gc3YSvHJvTKcixmaC72-6">
          <mxGeometry width="50" height="50" relative="1" as="geometry">
            <mxPoint x="210" y="210" as="sourcePoint" />
            <mxPoint x="260" y="160" as="targetPoint" />
          </mxGeometry>
        </mxCell>
        <mxCell id="6gc3YSvHJvTKcixmaC72-8" value="" style="endArrow=classic;html=1;rounded=0;exitX=1;exitY=0.25;exitDx=0;exitDy=0;" edge="1" parent="1" source="6gc3YSvHJvTKcixmaC72-5">
          <mxGeometry width="50" height="50" relative="1" as="geometry">
            <mxPoint x="200" y="340" as="sourcePoint" />
            <mxPoint x="250" y="290" as="targetPoint" />
          </mxGeometry>
        </mxCell>
        <mxCell id="6gc3YSvHJvTKcixmaC72-9" value="" style="endArrow=classic;html=1;rounded=0;" edge="1" parent="1">
          <mxGeometry width="50" height="50" relative="1" as="geometry">
            <mxPoint x="390" y="260" as="sourcePoint" />
            <mxPoint x="450" y="260" as="targetPoint" />
          </mxGeometry>
        </mxCell>
        <mxCell id="6gc3YSvHJvTKcixmaC72-10" value="Register a job now BUTTON" style="rounded=1;whiteSpace=wrap;html=1;" vertex="1" parent="1">
          <mxGeometry x="450" y="230" width="240" height="60" as="geometry" />
        </mxCell>
        <mxCell id="6gc3YSvHJvTKcixmaC72-11" value="&lt;font style=&quot;font-size: 18px;&quot;&gt;+&lt;/font&gt;" style="text;html=1;align=center;verticalAlign=middle;whiteSpace=wrap;rounded=0;" vertex="1" parent="1">
          <mxGeometry x="400" y="320" width="60" height="30" as="geometry" />
        </mxCell>
        <mxCell id="6gc3YSvHJvTKcixmaC72-12" value="A small descriptive section." style="rounded=1;whiteSpace=wrap;html=1;" vertex="1" parent="1">
          <mxGeometry x="330" y="380" width="230" height="60" as="geometry" />
        </mxCell>
        <mxCell id="6gc3YSvHJvTKcixmaC72-13" value="&lt;font style=&quot;font-size: 18px;&quot;&gt;+&lt;/font&gt;" style="text;html=1;align=center;verticalAlign=middle;whiteSpace=wrap;rounded=0;" vertex="1" parent="1">
          <mxGeometry x="415" y="470" width="60" height="30" as="geometry" />
        </mxCell>
        <mxCell id="6gc3YSvHJvTKcixmaC72-14" value="Mascot and link to show what customers say about Shufuti and SharApu." style="rounded=1;whiteSpace=wrap;html=1;" vertex="1" parent="1">
          <mxGeometry x="240" y="520" width="420" height="100" as="geometry" />
        </mxCell>
        <mxCell id="6gc3YSvHJvTKcixmaC72-15" value="&lt;font style=&quot;font-size: 18px;&quot;&gt;+&lt;/font&gt;" style="text;html=1;align=center;verticalAlign=middle;whiteSpace=wrap;rounded=0;" vertex="1" parent="1">
          <mxGeometry x="415" y="640" width="60" height="30" as="geometry" />
        </mxCell>
        <mxCell id="6gc3YSvHJvTKcixmaC72-16" value="" style="rounded=1;whiteSpace=wrap;html=1;" vertex="1" parent="1">
          <mxGeometry x="310" y="700" width="290" height="370" as="geometry" />
        </mxCell>
        <mxCell id="6gc3YSvHJvTKcixmaC72-17" value="WorkFlow for a hirer" style="text;html=1;align=center;verticalAlign=middle;whiteSpace=wrap;rounded=0;" vertex="1" parent="1">
          <mxGeometry x="390" y="710" width="130" height="30" as="geometry" />
        </mxCell>
        <mxCell id="6gc3YSvHJvTKcixmaC72-18" value="1. Register a job" style="rounded=1;whiteSpace=wrap;html=1;" vertex="1" parent="1">
          <mxGeometry x="390" y="770" width="130" height="40" as="geometry" />
        </mxCell>
        <mxCell id="6gc3YSvHJvTKcixmaC72-19" value="2. Place an order to a worker" style="rounded=1;whiteSpace=wrap;html=1;" vertex="1" parent="1">
          <mxGeometry x="390" y="850" width="130" height="45" as="geometry" />
        </mxCell>
        <mxCell id="6gc3YSvHJvTKcixmaC72-20" value="3. Easy Payment" style="rounded=1;whiteSpace=wrap;html=1;" vertex="1" parent="1">
          <mxGeometry x="390" y="930" width="130" height="40" as="geometry" />
        </mxCell>
        <mxCell id="6gc3YSvHJvTKcixmaC72-23" value="" style="endArrow=classic;html=1;rounded=0;" edge="1" parent="1">
          <mxGeometry width="50" height="50" relative="1" as="geometry">
            <mxPoint x="450" y="815" as="sourcePoint" />
            <mxPoint x="450" y="845" as="targetPoint" />
          </mxGeometry>
        </mxCell>
        <mxCell id="6gc3YSvHJvTKcixmaC72-26" value="" style="endArrow=classic;html=1;rounded=0;" edge="1" parent="1">
          <mxGeometry width="50" height="50" relative="1" as="geometry">
            <mxPoint x="449.5" y="900" as="sourcePoint" />
            <mxPoint x="449.5" y="930" as="targetPoint" />
          </mxGeometry>
        </mxCell>
      </root>
    </mxGraphModel>
  </diagram>
</mxfile>
